<mxfile host="app.diagrams.net" agent="Mozilla/5.0 (Macintosh; Intel Mac OS X 10_15_7) AppleWebKit/537.36 (KHTML, like Gecko) Chrome/127.0.0.0 Safari/537.36" version="24.7.6">
  <diagram name="Page-1" id="c7558073-3199-34d8-9f00-42111426c3f3">
    <mxGraphModel dx="896" dy="491" grid="1" gridSize="10" guides="1" tooltips="1" connect="1" arrows="1" fold="1" page="1" pageScale="1" pageWidth="826" pageHeight="1169" background="none" math="0" shadow="0">
      <root>
        <mxCell id="0" />
        <mxCell id="1" parent="0" />
        <mxCell id="bNGbjrNVHNErTSMPDvBO-97" value="&lt;p style=&quot;margin: 4px 0px 0px; text-align: center; text-decoration: underline; font-size: 11px;&quot;&gt;&lt;strong style=&quot;font-size: 11px;&quot;&gt;Process 1&lt;br style=&quot;font-size: 11px;&quot;&gt;&lt;/strong&gt;&lt;/p&gt;&lt;hr style=&quot;font-size: 11px;&quot;&gt;&lt;p style=&quot;text-align: left; margin: 0px 0px 0px 8px; font-size: 11px;&quot;&gt;&lt;span style=&quot;font-weight: 400; font-family: Menlo, Monaco, &amp;quot;Courier New&amp;quot;, monospace; white-space-collapse: preserve; font-size: 11px;&quot;&gt;&amp;lt;|im_start|&amp;gt;user\n&lt;/span&gt;&lt;span style=&quot;font-family: Menlo, Monaco, &amp;quot;Courier New&amp;quot;, monospace; font-weight: 400; white-space-collapse: preserve; background-color: initial;&quot;&gt;先阅读以&lt;/span&gt;&lt;/p&gt;&lt;p style=&quot;text-align: left; margin: 0px 0px 0px 8px; font-size: 11px;&quot;&gt;&lt;span style=&quot;font-family: Menlo, Monaco, &amp;quot;Courier New&amp;quot;, monospace; font-weight: 400; white-space-collapse: preserve; background-color: initial;&quot;&gt;下多个参考文档，&lt;/span&gt;&lt;/p&gt;" style="verticalAlign=middle;align=center;overflow=fill;fontSize=11;fontFamily=Helvetica;html=1;rounded=1;fontStyle=1;strokeWidth=3;fillColor=#E6FFCC" vertex="1" parent="1">
          <mxGeometry x="110" y="850" width="180" height="60" as="geometry" />
        </mxCell>
        <mxCell id="bNGbjrNVHNErTSMPDvBO-99" value="" style="edgeStyle=elbowEdgeStyle;elbow=vertical;strokeColor=#6c8ebf;strokeWidth=2;fillColor=#dae8fc;" edge="1" parent="1">
          <mxGeometry width="100" height="100" relative="1" as="geometry">
            <mxPoint x="290" y="885" as="sourcePoint" />
            <mxPoint x="335" y="884.69" as="targetPoint" />
          </mxGeometry>
        </mxCell>
        <mxCell id="bNGbjrNVHNErTSMPDvBO-100" value="" style="shape=image;verticalLabelPosition=bottom;verticalAlign=top;imageAspect=0;aspect=fixed;image=data:image/png,iVBORw0KGgoAAAANSUhEUgAAAMgAAADICAYAAACtWK6eAAAAAXNSR0IArs4c6QAAD35JREFUeF7tXe2V2zYQFC89OC/VxO4gSQ1J2rDdRuwa4nRguZq8Sw8W83AyLYoCCGCxXwDH/3wiQGB2Z2d3QVHTCf+AABBIIjABGyAABNIIgCDwDiCwgwAIAvcAAiAIfAAI0BCAghTi9vsv/74Ol07TD2/vh8wvf6f9m87rcdM0f1n+/9ffP76jzYlRnAiAIAVo/vnb87t5Pm2IUTCw4ZJpOr0HSRoAZBoKgmSAtCDHsiSQhMnLG6YBQXbAsyTHsqx5vrz5+M9Pd6lYg70xtBIBEGQHsD9+fZ4r8RS5/MOnH2EnEWTzkwL4BEYe1OO2tOn84dOrN3lz4gpuBECQCKK+yHFdIOoRbtcvmw8EieAUS60WB7UkD1KtMqfmvAoE2aCZIsDaOf/49b/Pp1PL+QfVhEi1qMhRx4EgK+RS5NimN+HQcJqePlNBbxmHrlYLevVjQZAVZjFlSOX+dqkWVKTezekjQJBv2JWkVluYrVItFOx0h68dCYJ8Q2yvME+BaplqoWCvdXXa9SDI6XSiqMcCt5WKnE5ItWguXzfq8AQpLcz3YLU6cUfBXufslKsPT5CawjwFMAp2iuv1MebQBGlJrbwU7FARWaIdmiCUwtxfwY5aRJIihyUIp3pYF+xo+8pR5LAE4VSPxTyWbV+kWjIkOSRB4urBk6qgYJdxVKtZD0cQjrZuzlho++YQ6ufzwxFEIrXamttORVod7/4tK+vZ1m9cWf5+uVzuvgo84leDD0UQicI85ZJ2J+ytJOEcfyXcmlwLqXoh06EIoqEeHgp2TheXn2s6BwIF4ngkzWEIoqke1m1feaeWuUNoVweiPD09vfbyTrDDEERTPaAirQTi6Si2ruIlPeSYxPscFupxUxEfrw7ybqPt+rwcfg5PEI22bsr5LA8OeyNEbL0eDj8PSxCNLxz12+71QS8PKjI0QSzVI7iY1YGhD/duXwUI0o7h7gwWhfmyIKhHu3FBkHYMkzNYqgfIwWNY1CA8OEZngXoIgqs0NQgiBLRlWxfqwWdUEIQPy+8zWaZWKMy5DWp/YDhcFyvVOUJbl9t5NeYDQVhRhnqwwuliMus0aygFQWHuwqfZF6Gh/qlFD0MQqAe7X7qa0OpMZAiCWJMDnSsdLlmQZAiCoDDXcVAPd9GuSbonCNTDg9vqrkGzJumaIHupjQaISK10ibHcTTPV6pogqdRKC0A8rWtDkHBXrVRLlCDhC0MLhOF7xls4t6+NScEd+zI/Uis75/RxZ51DRHaCXL9F98Nbm1+BPZ00Uis8UuKDIhq2ZiWIdU6ulVpZ79OHe9qvQiPNYiOIB6fRiCge9mnvmj5WoBEQ2QjSXrCmX3u5NUfqNZgaLx4LKWSsnprn6WcfbuNzFTGblax0r07VsDcLQfaj6u3NeQsgGhsrAR/XAIEcAs0EyaUcGnlibpP4HAhQERAnCH6umGoajPOAQBNBcuqxbBAq4sHUWAMFARWCQEUopsEYDwiQCVKqHlARD2Yecw2hoyjd8CETpP4HYnQeDRjTFbCrGAIhSEv/TAKJILXqARWBg3MjsLwYXPpwmEQQ+qEgVITbUY4635LBuCMIVT0WQ2o8HnBUpznKvtc/KyHdIa1WELp63MwnzfqjOMoR93kfoOUzkiqCtKoHVOSILs2753VzSFo9wsqLCcJFDhTsvA5zpNm2PqiRiZgRBIeHR3Lt9r0+/pydfHpVrCDc6gEVaXeYI80Q+61HjfSqmCAchXncoDpR4EjONOJeHw+l9fwmm2JJqQcK9hFdmX9PlupRpCBy6oG2L787jTejpXpkCSKtHjdz6knmeC407o6s1WOXIHrkuBpYq+ga153G25m1ergiCNq+4zl4y45iAdoiiCaLdI3aYwugBQAtRsRYGQTi2YtNGh4liHZ6tYZZ43RUxqyYlQuB+HeNHBHEQj3Q9uVyr/7niQVoq6fAowpS/21BXqMg1eLFs7fZQJCsxWzkNLssXKCGQCyLsUi/owoS6z+rIfPtRlARbcR93c+Liux0sf77bPUTBldTQUV8uaz+ajyoSJIgHlTEqjBbXCFEsbVbpF9QPT/8OJC+O7Xc0Wcw8qAiuw8rWhfrweQWeefiapbdvBZ3rx1riXFurdYqsksQDypimWpZngflHIfrc++1nrWKZB9396Ailkb0sH8uMjzO4zO12q7TkiRZgkBFnt/N8+mtnJPazew5tdqi8phq6ZA7S5CwUA9R1FJFRky1LPGkhAQrFSkiyNFV5BoknmeKYX2O0Ym+3HuPBWppFSwiSNiohyhq2fb1sH8uh+tNPZZ9xwK1tE8UE8RLqiUdMfaccAwV6VM91mdT65rQFUGOnmqNoCK9qsc6cGm+QK5KQbyoiKWR+1aRvtVjTRKtF1hXEwQq0m/b1zKwcNVP63mWYCWZZlUTxEvBbmnsPlOtcdTj8VGg6Rz+Nk3zF+5fnCIRxEfb087gPRLEMqBIqEcqUHM3ccgE8ZBqWRq9L5LYBRMpcjyqyPUv3OkWmSA+CnZbw/dSsFsGEmmCPAYqXp9oIogHFeGOGDUG7UFFLPGpwZJ6rfQjKE0E8aEitm9l9K4i3Dk51ZElx8VIwrXvZoKgYPfb9rVOrYLjcneVUkTbBiou5WQhiIdUw9IZPDzt/Og4vLl4rQIsPsHlqLn7S72qlIUgPlItO4fwECC2DmQZMLZZhdZatnbguC8bQTwU7ByA5CJV6nNfJLELFvHzCb31rFMtDn9gI8jRVcRHLXalL4djUANFKlBqrek+UE3nef76/uM/P72ctFP+sRLEg4po5bwxsD2oiOX+4+qxIKWpIvfvdGvBhJUg+wBR+EsboxWtYquzbfvqOSElQGjaZWsHatuXnSBHT7UsVUTTAWnBQY/A22yGqiIiBPGQalk6iw1J9JyPoh7LGE273LffafiIEAQqon94qOl4NPXQr0W2gYqiImIE8aAiFEBoVc/jKE0Vsdwnpe7UJHPr2YgYQXyoyDHe7UstQDmCATUQaK259fvrogSBisinWprRuKX22I7VVL0bSerrEFGCUOSXI6pt57B0Itm2b73BOfGlqod2wd7yXJg4Qa6plvVbCe0cqdWJ9hzakvg8KbSdXUoDhQpBJJ2kdKOWziSzf1vn4tqTpl2WlL8mvVMhCE+0KaVC6jo7h5KoxTQdq62tm7ebVsFOeZeWGkEknCQP/f0VNZGjdu7c9VwRN9zHch8SdaXmfm6Hh2UBU40gPlRkhLZvmWFzhKV+zkn09Rq0FPE+UOef9lUliAcV6f0n3bQcKUUguYaLHvHXe8iplypBvKiIpZO1OZieE3GeeZSqVc5ZS+fJXbd+RitX/6gTBCpCPzy0JLZWu15jjzcfzAccdYJARag/RpQ3Zi5ytnwuVXs8rklmn4EU63tN09PnkoaHOkF8KMgLNOcPn169aXEa6liKs2lE1tR+KOulYmMxbi/NUieIJ7C1ct7WfN5ynVqplQUxrvfcD5SqBPFEjsUglpG5rGC3UzqJMw87IsTvnAs+qgQpcwhtCO0csCRgWBJ4dPXIkeNFX7TcscQZtNayvY+lE+4HDTvyjqwegRiXy+Vc8jogNYL4VI+FKnaOuBc4LIk7snrU4KpCEM/q4bcWsSPtyOoR9uaOIL7Vw6eK1BhRIjXtw2a0nedOz9eziitID+rxnSLT6b3W6/q3pt2+MtPqjGZ09Qj7c0WQ3iKRZeResLJcw8i1x0tXqjIIiipIT+pxi+h2uX/AK6zDSsWgHo8pmxhB+iTHFSDrCE7LrNtH9Wyzkt3XqofoOUjfYNupSImhpa7pLR2uxaGm9vhel9bepOT6vslxTBUZwWZ7vklRDzEFGSMSHUtFxrBZnCJUcogQZKRI1AJsidJ6uWYkm8UwpaRWYinWaJFo9IJ9dHK0BjnWLtaYYI+dao0W0LYK0qIe7CnWqGCPqiJjBrTViVbloWAsPWNTkD7Anop+7XSa5i9rsEofjfZSU5Ssow97lewkfQ1HYGMhiA+wp3Nw7ODMC2Qlz/u3maDf0T5sJotfa3rFlmLZvYgh/2Y8WRP0OfsRyNFanLN3se5/MFHDccYuniURHLVW/O7UDLUHO0G0VYQjv5R0Qq9zj68evIGTpQZZnEELfC759OrEkusaWz14ycFWg6wNqmEAEIRGIa0ARlsdZdStKznPX99LNGVYFSRsUcMIHN0Jijl6H6MRvPYw6jGwsRMkACRZsPcIsgdiaQSu0cghkmKFSSULdqgHjW7W6tGr3UQUREpFoB40ckA9aLiJKYiMivB3KOiw9TNSUs1LUehVPUQJwq0iUI9Sd7y/DupBw20ZJZZicaoIyEEzMshBw209SpQgXG3fniW63UT0GawL8xECmzhBrqnW80w18wggU/feMg7q0YLebawKQVqMBfWgGbolKNHueD9qFLupEIRasEM9aK7aEpBod7wfNZLd1AhS224cCWQOpyudw5ocYZ2jqId4m3dr1JpHUEYCudS5Oa6zTq1GC2xqClLT9h0NZA7HL5nDWj1GtJsqQUrbvlCPEjo8XgP1oOG2N0qdILmCfcQoxG+2xxmhHjIomxBkr2BffoE0tV2JL8XIQKs3a20DRGJlo6q+CUFKUy0JQ+rOqfOAJdRDzqpmBMmlWnJb1p1Z+uUS1uQYra279Q5TgnhIDeTpIqsiKMxlLWhKkJrWrywMsrNLNR6gHrJ2C7ObE2TZYjD2drvzPP28D8H8Wh4injtIFLFQDx7buGvzym/L7g6ptJFbRazVg3s/dhbbv7MbBfEKEGVdqUdquAp2a3KMXpivbQ6CUBhQMCae/vAU7DXPtBUstfqSo6iHqxqk2krOB6SifKuKQD10DQ8FEcQ7HunbVASFuaDBIlODIIJ4pwp2qopAPQSNlZgaBBHGnFNFoB7CxoKC6APMpSLW6nGkwhxdLGWexJ27vBaxJsdLN4fxV5uU4W+6HVKsJvjKB8fSo1KnQ1u3HGfuK0EQbkQT86VUIPcIigf1yK1RCUKT24AgirDHlCCnIijMFQ2EIt0W7NqCHephay+cpBvgX9r29fBdmZy6GcCnfkukWMqQl6qIdWF+OpV32ZQhVL0dCKIK9/Vmuad9PaRWUI+rrUAQA4J4SJ/2tg1y3NABQQwIsqciRsu5u+2R27pb/EEQI4/0qiJQj3uHAEGMCBJu66HWWG8f5Hh0BhDEkCC+SIKuVcwVQBBjguiRZDrfq8X8Jfz/crm8/B2vdI07AgjigCDrJYTapHVJcPZWBNHF4kMQMw2NABRkaPNic60IgCCtCGL80AiAIEObF5trRQAEaUUQ44dG4H/cjpxu5SIGQQAAAABJRU5ErkJggg==" vertex="1" parent="1">
          <mxGeometry x="330" y="860" width="190" height="190" as="geometry" />
        </mxCell>
        <mxCell id="bNGbjrNVHNErTSMPDvBO-101" value="" style="edgeStyle=elbowEdgeStyle;elbow=vertical;strokeColor=#990000;strokeWidth=2" edge="1" parent="1">
          <mxGeometry width="100" height="100" relative="1" as="geometry">
            <mxPoint x="500" y="884.75" as="sourcePoint" />
            <mxPoint x="564" y="884.75" as="targetPoint" />
          </mxGeometry>
        </mxCell>
        <mxCell id="bNGbjrNVHNErTSMPDvBO-103" value="&lt;p style=&quot;margin: 4px 0px 0px; text-align: center; font-size: 11px;&quot;&gt;&lt;u style=&quot;font-size: 11px;&quot;&gt;Continue writing instruction&lt;br style=&quot;font-size: 11px;&quot;&gt;&lt;/u&gt;&lt;/p&gt;&lt;hr style=&quot;font-size: 11px;&quot;&gt;&lt;p style=&quot;text-align: justify; margin: 0px 0px 0px 8px; font-size: 11px;&quot;&gt;&lt;span style=&quot;color: rgb(50, 55, 60); text-align: left; white-space: pre-wrap; background-color: initial; font-weight: normal;&quot;&gt;&lt;font face=&quot;Helvetica&quot;&gt;综合考虑这些文档中与问题有关的内容，对问题进行详细解答，回答时不要改变文档内容中的关键信息。&lt;/font&gt;&lt;/span&gt;&lt;br&gt;&lt;/p&gt;" style="verticalAlign=middle;align=center;overflow=fill;fontSize=11;fontFamily=Helvetica;html=1;rounded=1;fontStyle=1;strokeWidth=3;fillColor=#f8cecc;strokeColor=#b85450;" vertex="1" parent="1">
          <mxGeometry x="564" y="830" width="180" height="80" as="geometry" />
        </mxCell>
        <mxCell id="bNGbjrNVHNErTSMPDvBO-104" value="&lt;p style=&quot;margin: 4px 0px 0px; text-align: center; text-decoration: underline; font-size: 11px;&quot;&gt;&lt;strong style=&quot;font-size: 11px;&quot;&gt;Process 2&lt;br style=&quot;font-size: 11px;&quot;&gt;&lt;/strong&gt;&lt;/p&gt;&lt;hr style=&quot;font-size: 11px;&quot;&gt;&lt;p style=&quot;text-align: left; margin: 0px 0px 0px 8px; font-size: 11px;&quot;&gt;&lt;span style=&quot;font-weight: 400; font-family: Menlo, Monaco, &amp;quot;Courier New&amp;quot;, monospace; white-space-collapse: preserve; font-size: 11px;&quot;&gt;&amp;lt;|im_start|&amp;gt;user\n&lt;/span&gt;&lt;span style=&quot;background-color: initial; font-family: Menlo, Monaco, &amp;quot;Courier New&amp;quot;, monospace; font-weight: 400; white-space-collapse: preserve;&quot;&gt;先阅读以&lt;/span&gt;&lt;/p&gt;&lt;p style=&quot;text-align: left; margin: 0px 0px 0px 8px; font-size: 11px;&quot;&gt;&lt;span style=&quot;background-color: initial; font-family: Menlo, Monaco, &amp;quot;Courier New&amp;quot;, monospace; font-weight: 400; white-space-collapse: preserve;&quot;&gt;下&lt;/span&gt;&lt;span style=&quot;background-color: initial; white-space-collapse: preserve; font-family: Menlo, Monaco, &amp;quot;Courier New&amp;quot;, monospace; font-weight: 400;&quot;&gt;多个参考文档，&lt;/span&gt;&lt;span style=&quot;background-color: initial; white-space: pre-wrap; font-family: PingFangSC-Regular, &amp;quot;PingFang SC&amp;quot;, Tahoma, &amp;quot;Hiragino Sans GB&amp;quot;, &amp;quot;Microsoft YaHei&amp;quot;;&quot;&gt;&lt;font color=&quot;#990000&quot;&gt;综合考虑这些文档中与问题有关的内容，对问题进行详细解答，回答时不要改变文档内容中的关键信息&lt;/font&gt;&lt;/span&gt;&lt;/p&gt;" style="verticalAlign=middle;align=center;overflow=fill;fontSize=11;fontFamily=Helvetica;html=1;rounded=1;fontStyle=1;strokeWidth=3;fillColor=#E6FFCC" vertex="1" parent="1">
          <mxGeometry x="110" y="916" width="180" height="100" as="geometry" />
        </mxCell>
        <mxCell id="bNGbjrNVHNErTSMPDvBO-109" value="&lt;p style=&quot;margin: 4px 0px 0px; text-align: center; font-size: 11px;&quot;&gt;&lt;u style=&quot;font-size: 11px;&quot;&gt;Continue writing instruction&lt;br style=&quot;font-size: 11px;&quot;&gt;&lt;/u&gt;&lt;/p&gt;&lt;hr style=&quot;font-size: 11px;&quot;&gt;&lt;p style=&quot;text-align: start; margin: 0px 0px 0px 8px; font-size: 11px;&quot;&gt;&lt;font face=&quot;Menlo, Monaco, Courier New, monospace&quot; style=&quot;font-size: 11px;&quot;&gt;&lt;span style=&quot;font-size: 11px; font-weight: 400; white-space-collapse: preserve;&quot;&gt;问题：...&lt;/span&gt;&lt;/font&gt;&lt;span style=&quot;font-family: Menlo, Monaco, &amp;quot;Courier New&amp;quot;, monospace; font-weight: 400; white-space-collapse: preserve; background-color: initial; font-size: 11px;&quot;&gt;&lt;font style=&quot;font-size: 11px;&quot;&gt;请从参考文档中总结&lt;/font&gt;&lt;/span&gt;&lt;/p&gt;&lt;p style=&quot;text-align: start; margin: 0px 0px 0px 8px; font-size: 11px;&quot;&gt;&lt;span style=&quot;font-family: Menlo, Monaco, &amp;quot;Courier New&amp;quot;, monospace; font-weight: 400; white-space-collapse: preserve; background-color: initial; font-size: 11px;&quot;&gt;&lt;font style=&quot;font-size: 11px;&quot;&gt;回答。&lt;/font&gt;&lt;/span&gt;&lt;/p&gt;" style="verticalAlign=middle;align=center;overflow=fill;fontSize=11;fontFamily=Helvetica;html=1;rounded=1;fontStyle=1;strokeWidth=3;fillColor=#f8cecc;strokeColor=#b85450;" vertex="1" parent="1">
          <mxGeometry x="564" y="925" width="180" height="60" as="geometry" />
        </mxCell>
        <mxCell id="bNGbjrNVHNErTSMPDvBO-110" value="" style="edgeStyle=elbowEdgeStyle;elbow=vertical;strokeColor=#6c8ebf;strokeWidth=2;fillColor=#dae8fc;exitX=1;exitY=0.5;exitDx=0;exitDy=0;" edge="1" parent="1" source="bNGbjrNVHNErTSMPDvBO-104">
          <mxGeometry width="100" height="100" relative="1" as="geometry">
            <mxPoint x="300" y="965" as="sourcePoint" />
            <mxPoint x="335" y="964.81" as="targetPoint" />
          </mxGeometry>
        </mxCell>
        <mxCell id="bNGbjrNVHNErTSMPDvBO-111" value="" style="edgeStyle=elbowEdgeStyle;elbow=vertical;strokeColor=#990000;strokeWidth=2" edge="1" parent="1" source="bNGbjrNVHNErTSMPDvBO-100">
          <mxGeometry width="100" height="100" relative="1" as="geometry">
            <mxPoint x="520" y="954.69" as="sourcePoint" />
            <mxPoint x="564" y="954.8100000000001" as="targetPoint" />
          </mxGeometry>
        </mxCell>
        <mxCell id="bNGbjrNVHNErTSMPDvBO-112" value="" style="shape=curlyBracket;whiteSpace=wrap;html=1;rounded=1;flipH=1;labelPosition=right;verticalLabelPosition=middle;align=left;verticalAlign=middle;strokeWidth=2;fillColor=#990000;strokeColor=#990000;" vertex="1" parent="1">
          <mxGeometry x="750" y="820" width="21" height="210" as="geometry" />
        </mxCell>
        <mxCell id="bNGbjrNVHNErTSMPDvBO-114" value="" style="edgeStyle=elbowEdgeStyle;elbow=horizontal;exitX=0;exitY=0.75;strokeColor=#990000;strokeWidth=2" edge="1" parent="1">
          <mxGeometry width="100" height="100" relative="1" as="geometry">
            <mxPoint x="750" y="820" as="sourcePoint" />
            <mxPoint x="110" y="1000" as="targetPoint" />
            <Array as="points">
              <mxPoint x="69" y="870" />
            </Array>
          </mxGeometry>
        </mxCell>
        <mxCell id="bNGbjrNVHNErTSMPDvBO-124" value="Combined with the model continuation content as input" style="edgeLabel;html=1;align=center;verticalAlign=middle;resizable=0;points=[];" vertex="1" connectable="0" parent="bNGbjrNVHNErTSMPDvBO-114">
          <mxGeometry x="-0.2993" relative="1" as="geometry">
            <mxPoint as="offset" />
          </mxGeometry>
        </mxCell>
        <mxCell id="bNGbjrNVHNErTSMPDvBO-116" value="" style="edgeStyle=segmentEdgeStyle;strokeColor=#990000;strokeWidth=2;exitX=0.1;exitY=0.5;exitDx=0;exitDy=0;exitPerimeter=0;" edge="1" parent="1" source="bNGbjrNVHNErTSMPDvBO-112">
          <mxGeometry width="100" height="100" relative="1" as="geometry">
            <mxPoint x="769.4000000000003" y="904.9999999999998" as="sourcePoint" />
            <mxPoint x="690" y="1100" as="targetPoint" />
            <Array as="points">
              <mxPoint x="801" y="925" />
              <mxPoint x="801" y="1100" />
            </Array>
          </mxGeometry>
        </mxCell>
        <mxCell id="bNGbjrNVHNErTSMPDvBO-123" value="extract prompt" style="edgeLabel;html=1;align=center;verticalAlign=middle;resizable=0;points=[];" vertex="1" connectable="0" parent="bNGbjrNVHNErTSMPDvBO-116">
          <mxGeometry x="-0.329" y="1" relative="1" as="geometry">
            <mxPoint as="offset" />
          </mxGeometry>
        </mxCell>
        <mxCell id="bNGbjrNVHNErTSMPDvBO-117" value="&lt;p style=&quot;margin: 4px 0px 0px; text-align: center; text-decoration: underline; font-size: 11px;&quot;&gt;&lt;strong style=&quot;font-size: 11px;&quot;&gt;Process ...&lt;br style=&quot;font-size: 11px;&quot;&gt;&lt;/strong&gt;&lt;/p&gt;&lt;hr style=&quot;font-size: 11px;&quot;&gt;&lt;p style=&quot;margin: 0px 0px 0px 8px; font-size: 11px;&quot;&gt;·············&lt;/p&gt;" style="verticalAlign=middle;align=center;overflow=fill;fontSize=11;fontFamily=Helvetica;html=1;rounded=1;fontStyle=1;strokeWidth=3;fillColor=#E6FFCC" vertex="1" parent="1">
          <mxGeometry x="110" y="1024" width="180" height="50" as="geometry" />
        </mxCell>
        <mxCell id="bNGbjrNVHNErTSMPDvBO-118" value="" style="edgeStyle=elbowEdgeStyle;elbow=vertical;strokeColor=#6c8ebf;strokeWidth=2;fillColor=#dae8fc;exitX=1.022;exitY=0.405;exitDx=0;exitDy=0;exitPerimeter=0;" edge="1" parent="1" source="bNGbjrNVHNErTSMPDvBO-117">
          <mxGeometry width="100" height="100" relative="1" as="geometry">
            <mxPoint x="300" y="1046" as="sourcePoint" />
            <mxPoint x="336" y="1046.1799999999998" as="targetPoint" />
          </mxGeometry>
        </mxCell>
        <mxCell id="bNGbjrNVHNErTSMPDvBO-119" value="&lt;p style=&quot;margin: 4px 0px 0px; text-align: center; font-size: 11px;&quot;&gt;&lt;u style=&quot;font-size: 11px;&quot;&gt;Continue writing instruction&lt;br style=&quot;font-size: 11px;&quot;&gt;&lt;/u&gt;&lt;/p&gt;&lt;hr style=&quot;font-size: 11px;&quot;&gt;·············" style="verticalAlign=middle;align=center;overflow=fill;fontSize=11;fontFamily=Helvetica;html=1;rounded=1;fontStyle=1;strokeWidth=3;fillColor=#f8cecc;strokeColor=#b85450;" vertex="1" parent="1">
          <mxGeometry x="564" y="1000" width="180" height="50" as="geometry" />
        </mxCell>
        <mxCell id="bNGbjrNVHNErTSMPDvBO-121" value="" style="edgeStyle=elbowEdgeStyle;elbow=vertical;strokeColor=#990000;strokeWidth=2" edge="1" parent="1" source="bNGbjrNVHNErTSMPDvBO-100">
          <mxGeometry width="100" height="100" relative="1" as="geometry">
            <mxPoint x="520" y="1025.06" as="sourcePoint" />
            <mxPoint x="564" y="1024.8700000000001" as="targetPoint" />
          </mxGeometry>
        </mxCell>
        <mxCell id="bNGbjrNVHNErTSMPDvBO-122" value="&lt;div style=&quot;text-align: center;&quot;&gt;&lt;font style=&quot;font-size: 11px;&quot;&gt;&lt;span style=&quot;color: rgb(50, 55, 60); font-family: PingFangSC-Regular, &amp;quot;PingFang SC&amp;quot;, Tahoma, &amp;quot;Hiragino Sans GB&amp;quot;, &amp;quot;Microsoft YaHei&amp;quot;; white-space-collapse: preserve;&quot;&gt;Prompt&lt;/span&gt;&lt;/font&gt;&lt;/div&gt;&lt;font style=&quot;font-size: 11px;&quot;&gt;&lt;span style=&quot;color: rgb(50, 55, 60); font-family: PingFangSC-Regular, &amp;quot;PingFang SC&amp;quot;, Tahoma, &amp;quot;Hiragino Sans GB&amp;quot;, &amp;quot;Microsoft YaHei&amp;quot;; white-space-collapse: preserve;&quot;&gt;先阅读以下多个参考文档，综合考虑这些文档中与问题有关的内容，对问题进行详细解答，回答时不要改变文档内容中的关键信息。&lt;/span&gt;&lt;br style=&quot;box-sizing: inherit; -webkit-tap-highlight-color: rgba(0, 0, 0, 0); color: rgb(50, 55, 60); font-family: PingFangSC-Regular, &amp;quot;PingFang SC&amp;quot;, Tahoma, &amp;quot;Hiragino Sans GB&amp;quot;, &amp;quot;Microsoft YaHei&amp;quot;; white-space-collapse: preserve;&quot;&gt;&lt;span style=&quot;color: rgb(50, 55, 60); font-family: PingFangSC-Regular, &amp;quot;PingFang SC&amp;quot;, Tahoma, &amp;quot;Hiragino Sans GB&amp;quot;, &amp;quot;Microsoft YaHei&amp;quot;; white-space-collapse: preserve;&quot;&gt;&lt;br&gt;&lt;/span&gt;&lt;/font&gt;&lt;div&gt;&lt;font style=&quot;font-size: 11px;&quot;&gt;&lt;span style=&quot;color: rgb(50, 55, 60); font-family: PingFangSC-Regular, &amp;quot;PingFang SC&amp;quot;, Tahoma, &amp;quot;Hiragino Sans GB&amp;quot;, &amp;quot;Microsoft YaHei&amp;quot;; white-space-collapse: preserve;&quot;&gt;参考文档：&lt;/span&gt;&lt;br style=&quot;box-sizing: inherit; -webkit-tap-highlight-color: rgba(0, 0, 0, 0); color: rgb(50, 55, 60); font-family: PingFangSC-Regular, &amp;quot;PingFang SC&amp;quot;, Tahoma, &amp;quot;Hiragino Sans GB&amp;quot;, &amp;quot;Microsoft YaHei&amp;quot;; white-space-collapse: preserve;&quot;&gt;&lt;span style=&quot;color: rgb(50, 55, 60); font-family: PingFangSC-Regular, &amp;quot;PingFang SC&amp;quot;, Tahoma, &amp;quot;Hiragino Sans GB&amp;quot;, &amp;quot;Microsoft YaHei&amp;quot;; white-space-collapse: preserve;&quot;&gt;{context_str}&lt;/span&gt;&lt;br style=&quot;box-sizing: inherit; -webkit-tap-highlight-color: rgba(0, 0, 0, 0); color: rgb(50, 55, 60); font-family: PingFangSC-Regular, &amp;quot;PingFang SC&amp;quot;, Tahoma, &amp;quot;Hiragino Sans GB&amp;quot;, &amp;quot;Microsoft YaHei&amp;quot;; white-space-collapse: preserve;&quot;&gt;&lt;br style=&quot;box-sizing: inherit; -webkit-tap-highlight-color: rgba(0, 0, 0, 0); color: rgb(50, 55, 60); font-family: PingFangSC-Regular, &amp;quot;PingFang SC&amp;quot;, Tahoma, &amp;quot;Hiragino Sans GB&amp;quot;, &amp;quot;Microsoft YaHei&amp;quot;; white-space-collapse: preserve;&quot;&gt;&lt;span style=&quot;color: rgb(50, 55, 60); font-family: PingFangSC-Regular, &amp;quot;PingFang SC&amp;quot;, Tahoma, &amp;quot;Hiragino Sans GB&amp;quot;, &amp;quot;Microsoft YaHei&amp;quot;; white-space-collapse: preserve;&quot;&gt;问题：{query_str}&lt;/span&gt;&lt;br style=&quot;box-sizing: inherit; -webkit-tap-highlight-color: rgba(0, 0, 0, 0); color: rgb(50, 55, 60); font-family: PingFangSC-Regular, &amp;quot;PingFang SC&amp;quot;, Tahoma, &amp;quot;Hiragino Sans GB&amp;quot;, &amp;quot;Microsoft YaHei&amp;quot;; white-space-collapse: preserve;&quot;&gt;&lt;br style=&quot;box-sizing: inherit; -webkit-tap-highlight-color: rgba(0, 0, 0, 0); color: rgb(50, 55, 60); font-family: PingFangSC-Regular, &amp;quot;PingFang SC&amp;quot;, Tahoma, &amp;quot;Hiragino Sans GB&amp;quot;, &amp;quot;Microsoft YaHei&amp;quot;; white-space-collapse: preserve;&quot;&gt;&lt;span style=&quot;color: rgb(50, 55, 60); font-family: PingFangSC-Regular, &amp;quot;PingFang SC&amp;quot;, Tahoma, &amp;quot;Hiragino Sans GB&amp;quot;, &amp;quot;Microsoft YaHei&amp;quot;; white-space-collapse: preserve;&quot;&gt;回答：\&lt;/span&gt;&lt;/font&gt;&lt;/div&gt;" style="shape=ext;double=1;rounded=1;whiteSpace=wrap;html=1;align=left;fillColor=#fff2cc;strokeColor=#d6b656;" vertex="1" parent="1">
          <mxGeometry x="430" y="1070" width="261" height="170" as="geometry" />
        </mxCell>
      </root>
    </mxGraphModel>
  </diagram>
</mxfile>
